# xmcd
#
# Track frame offsets: 
#        150
#        18297
#        34963
#        55594
#        74815
#        94790
#        112315
#        133083
#        154841
#        172816
#        194765
#        213766
#        230539
#        247503
#        267159
#        287525
#
# Disc length: 4032 seconds
#
# Revision: 1
# Processed by: cddbd v1.5.2PL0 Copyright (c) Steve Scherf et al.
# Submitted via: ExactAudioCopyFreeDBPlugin 1.0
#
DISCID=e20fbe10
DTITLE=Various Artist - Most Wanted Vol.8
DYEAR=2006
DGENRE=Hip-Hop
TTITLE0=Eric B. and Rakim - Juice (Know The Ledge)
TTITLE1=Beastie Boys - Paul Revere
TTITLE2=Method Man and Redman - 1, 2, 1, 2
TTITLE3=X-Clan - In The Ways of The Scales
TTITLE4=Black Sheep - Gimme The Finga
TTITLE5=Foxy Brown - Big Bad Mama (feat. Dru Hill)
TTITLE6=EPMD - Manslaughter
TTITLE7=LL Cool J - Jack The Ripper
TTITLE8=Rakim - It's Been A Long Time [Suave House Mix]
TTITLE9=Method Man - Break Ups 2 Make Ups (feat.D'Angelo) [DJ Krush Re
TTITLE9=mix]
TTITLE10=Intelligent Hoodlum - Pump The Funk
TTITLE11=A Lighter Shade of Brown - Playin' In The Shade
TTITLE12=Redman - So Ruff
TTITLE13=Slick Rick - Hey Young World
TTITLE14=Lost Boyz - Music Makes Me High
TTITLE15=Warren G - This DJ
EXTD=
EXTT0=
EXTT1=
EXTT2=
EXTT3=
EXTT4=
EXTT5=
EXTT6=
EXTT7=
EXTT8=
EXTT9=
EXTT10=
EXTT11=
EXTT12=
EXTT13=
EXTT14=
EXTT15=
PLAYORDER=
